# xmcd
#
# Track frame offsets:
#	150
#	15199
#	41867
#	62684
#	81810
#	95561
#	111966
#	126508
#	146670
#	165606
#	182449
#
# Disc length: 2689 seconds
#
# Revision: 0
# Processed by: cddbd v1.5.2PL0 Copyright (c) Steve Scherf et al.
# Submitted via: dBpowerAMP V4.0
#
DISCID=900a7f0b
DTITLE=Kenny Chesney - Lucky Old Sun
DYEAR=1900
DGENRE=
TTITLE0=I'm Alive
TTITLE1=Way Down Here
TTITLE2=Boats
TTITLE3=Everybody Wants to go to Heaven
TTITLE4=Down The Road
TTITLE5=Spirit of a Storm
TTITLE6=Ten with a two
TTITLE7=The Life
TTITLE8=Keys in the Conch Shell
TTITLE9=Nowhere to Go, Nowhere to Be
TTITLE10=That Lucky Old Sun (Just Rolls Around in Heaven All Day)
EXTD=
EXTT0=
EXTT1=
EXTT2=
EXTT3=
EXTT4=
EXTT5=
EXTT6=
EXTT7=
EXTT8=
EXTT9=
EXTT10=
PLAYORDER=
